<?xml version="1.0" encoding="utf-8"?>
<!-- Generator: Adobe Illustrator 16.0.0, SVG Export Plug-In . SVG Version: 6.00 Build 0)  -->
<!DOCTYPE svg PUBLIC "-//W3C//DTD SVG 1.1//EN" "http://www.w3.org/Graphics/SVG/1.1/DTD/svg11.dtd">
<svg version="1.1" id="Layer_1" xmlns="http://www.w3.org/2000/svg" xmlns:xlink="http://www.w3.org/1999/xlink" x="0px" y="0px"
	 width="1091.094px" height="205.604px" viewBox="0 0 1091.094 205.604" enable-background="new 0 0 1091.094 205.604"
	 xml:space="preserve">
<g>
	<path fill="#FFFFFF" d="M349.064,128.103c0-0.251,0.075-0.604,0.227-1.058l17.914-49.659c0.251-0.806,1.259-1.209,3.023-1.209
		h2.191c1.764,0,2.771,0.404,3.023,1.209l17.914,49.735c0.15,0.353,0.227,0.68,0.227,0.982c0,0.857-1.084,1.285-3.25,1.285h-0.605
		c-1.764,0-2.771-0.403-3.022-1.209l-4.46-12.396h-22.222l-4.309,12.396c-0.253,0.807-1.26,1.209-3.023,1.209h-0.378
		C350.147,129.388,349.064,128.96,349.064,128.103z M362.14,110.038h18.064l-7.937-22.524l-0.982-4.384l-1.209,4.384L362.14,110.038
		z"/>
	<path fill="#FFFFFF" d="M398.798,102.782c0-17.938,8.163-26.908,24.489-26.908c3.628,0,6.94,0.517,9.939,1.549
		c2.997,1.033,4.497,2.079,4.497,3.137c0,0.706-0.315,1.613-0.944,2.721c-0.631,1.109-1.172,1.663-1.625,1.663
		c-0.102,0-0.643-0.276-1.625-0.831c-0.983-0.554-2.381-1.108-4.195-1.663c-1.814-0.554-3.779-0.832-5.896-0.832
		c-6.098,0-10.582,1.689-13.454,5.064c-2.872,3.376-4.309,8.73-4.309,16.062c0,7.332,1.423,12.698,4.271,16.1
		c2.847,3.401,7.243,5.102,13.189,5.102c2.268,0,4.409-0.314,6.425-0.945c2.015-0.629,3.577-1.259,4.687-1.89
		c1.107-0.629,1.738-0.945,1.89-0.945c0.453,0,1.007,0.555,1.663,1.663c0.654,1.109,0.982,1.916,0.982,2.418
		c0,1.16-1.575,2.356-4.725,3.59c-3.149,1.235-6.79,1.852-10.922,1.852c-8.314,0-14.449-2.179-18.404-6.538
		C400.775,118.794,398.798,112.003,398.798,102.782z"/>
	<path fill="#FFFFFF" d="M448.608,126.969V78.595c0-1.512,0.756-2.268,2.268-2.268h26.379c1.008,0,1.512,0.756,1.512,2.268v1.209
		c0,1.512-0.504,2.268-1.512,2.268h-21.995v17.233h19.728c1.008,0,1.512,0.756,1.512,2.268v1.209c0,1.512-0.504,2.268-1.512,2.268
		h-19.728v18.442h22.07c1.008,0,1.512,0.756,1.512,2.268v1.209c0,1.512-0.504,2.268-1.512,2.268h-26.454
		C449.364,129.237,448.608,128.481,448.608,126.969z"/>
	<path fill="#FFFFFF" d="M485.341,124.173c0-0.605,0.34-1.437,1.021-2.495c0.68-1.058,1.221-1.587,1.625-1.587
		c0.151,0,0.78,0.315,1.89,0.945c1.107,0.631,2.67,1.273,4.686,1.928c2.016,0.655,4.32,0.982,6.916,0.982
		c2.595,0,4.812-0.832,6.652-2.494c1.839-1.663,2.759-3.779,2.759-6.349s-0.845-4.611-2.532-6.123
		c-1.689-1.512-3.729-2.708-6.123-3.59c-2.394-0.881-4.799-1.826-7.218-2.834c-2.419-1.007-4.473-2.57-6.16-4.686
		c-1.689-2.117-2.532-4.812-2.532-8.088c0-4.182,1.536-7.545,4.61-10.09c3.073-2.544,7.13-3.817,12.17-3.817
		c2.468,0,5.113,0.453,7.936,1.36c2.822,0.907,4.233,1.991,4.233,3.25c0,0.555-0.315,1.361-0.945,2.419s-1.122,1.587-1.474,1.587
		c-0.202,0-0.731-0.252-1.587-0.756c-2.57-1.41-5.342-2.117-8.314-2.117c-2.974,0-5.342,0.718-7.105,2.154
		c-1.765,1.436-2.646,3.541-2.646,6.312c0,2.771,1.637,4.939,4.913,6.5c1.41,0.656,2.998,1.298,4.762,1.928
		c1.764,0.63,3.515,1.36,5.254,2.192c1.738,0.831,3.325,1.802,4.762,2.91c1.436,1.109,2.607,2.621,3.515,4.535
		c0.907,1.916,1.36,4.132,1.36,6.652c0,4.636-1.512,8.276-4.535,10.922s-6.854,3.968-11.489,3.968c-4.637,0-8.529-0.629-11.678-1.89
		C486.916,126.542,485.341,125.333,485.341,124.173z"/>
	<path fill="#FFFFFF" d="M523.134,124.173c0-0.605,0.34-1.437,1.021-2.495c0.68-1.058,1.221-1.587,1.625-1.587
		c0.151,0,0.78,0.315,1.89,0.945c1.107,0.631,2.67,1.273,4.686,1.928c2.016,0.655,4.32,0.982,6.916,0.982
		c2.595,0,4.812-0.832,6.652-2.494c1.839-1.663,2.759-3.779,2.759-6.349s-0.845-4.611-2.532-6.123
		c-1.689-1.512-3.729-2.708-6.123-3.59c-2.394-0.881-4.799-1.826-7.218-2.834c-2.419-1.007-4.473-2.57-6.16-4.686
		c-1.689-2.117-2.532-4.812-2.532-8.088c0-4.182,1.536-7.545,4.61-10.09c3.073-2.544,7.13-3.817,12.17-3.817
		c2.468,0,5.113,0.453,7.936,1.36c2.822,0.907,4.233,1.991,4.233,3.25c0,0.555-0.315,1.361-0.945,2.419s-1.122,1.587-1.474,1.587
		c-0.202,0-0.731-0.252-1.587-0.756c-2.57-1.41-5.342-2.117-8.314-2.117c-2.974,0-5.342,0.718-7.105,2.154
		c-1.765,1.436-2.646,3.541-2.646,6.312c0,2.771,1.637,4.939,4.913,6.5c1.41,0.656,2.998,1.298,4.762,1.928
		c1.764,0.63,3.515,1.36,5.254,2.192c1.738,0.831,3.325,1.802,4.762,2.91c1.436,1.109,2.607,2.621,3.515,4.535
		c0.907,1.916,1.36,4.132,1.36,6.652c0,4.636-1.512,8.276-4.535,10.922s-6.854,3.968-11.489,3.968c-4.637,0-8.529-0.629-11.678-1.89
		C524.708,126.542,523.134,125.333,523.134,124.173z"/>
	<path fill="#FFFFFF" d="M568.409,122.774c-3.98-4.611-5.971-11.325-5.971-20.144c0-8.817,1.977-15.482,5.934-19.992
		c3.955-4.509,9.737-6.765,17.347-6.765c7.607,0,13.403,2.255,17.384,6.765c3.98,4.51,5.972,11.175,5.972,19.992
		c0,8.819-1.991,15.533-5.972,20.144c-3.98,4.61-9.763,6.916-17.347,6.916S572.389,127.385,568.409,122.774z M573.511,118.504
		c2.796,3.628,6.865,5.442,12.207,5.442c5.34,0,9.422-1.814,12.244-5.442c2.821-3.628,4.233-8.906,4.233-15.835
		c0-6.928-1.412-12.169-4.233-15.722c-2.822-3.552-6.904-5.329-12.244-5.329c-5.342,0-9.411,1.776-12.207,5.329
		c-2.797,3.553-4.195,8.794-4.195,15.722C569.316,109.598,570.714,114.875,573.511,118.504z"/>
	<path fill="#FFFFFF" d="M637.946,127.725v-49.13c0-1.512,0.756-2.268,2.268-2.268h15.344c3.88,0,7.457,0.857,10.733,2.57
		c1.863,0.958,3.351,2.483,4.459,4.573c1.107,2.091,1.663,4.548,1.663,7.37c0,2.822-0.441,5.228-1.323,7.218
		c-0.882,1.991-1.94,3.515-3.174,4.573c-1.235,1.058-2.659,1.916-4.271,2.57c-2.47,1.009-4.913,1.512-7.332,1.512h-11.716v21.013
		c0,1.109-1.009,1.663-3.023,1.663h-0.604C638.954,129.388,637.946,128.834,637.946,127.725z M644.597,100.968h11.791
		c1.915,0,3.805-0.605,5.669-1.814c1.008-0.654,1.839-1.674,2.494-3.061c0.654-1.385,0.983-3.035,0.983-4.951
		c0-3.375-1.009-5.731-3.023-7.067c-2.017-1.334-4.41-2.003-7.181-2.003h-10.733V100.968z"/>
	<path fill="#FFFFFF" d="M675.511,128.103c0-0.251,0.075-0.604,0.227-1.058l17.914-49.659c0.251-0.806,1.259-1.209,3.023-1.209
		h2.191c1.764,0,2.771,0.404,3.023,1.209l17.914,49.735c0.15,0.353,0.227,0.68,0.227,0.982c0,0.857-1.084,1.285-3.25,1.285h-0.605
		c-1.764,0-2.771-0.403-3.022-1.209l-4.46-12.396h-22.222l-4.309,12.396c-0.253,0.807-1.26,1.209-3.023,1.209h-0.378
		C676.594,129.388,675.511,128.96,675.511,128.103z M688.587,110.038h18.064l-7.937-22.524l-0.982-4.384l-1.209,4.384
		L688.587,110.038z"/>
	<path fill="#FFFFFF" d="M728.269,127.725v-49.13c0-1.512,0.756-2.268,2.268-2.268h12.698c6.047,0,10.594,1.071,13.643,3.212
		c3.049,2.143,4.573,5.531,4.573,10.167c0,6.198-2.898,10.457-8.692,12.773v0.303c1.461,0.504,2.684,1.487,3.666,2.948
		c0.982,1.462,2.027,3.628,3.137,6.5l5.896,14.891c0.151,0.453,0.227,0.807,0.227,1.058c0,0.807-1.058,1.209-3.175,1.209h-0.756
		c-1.713,0-2.721-0.403-3.022-1.209l-5.745-14.815c-1.108-2.872-2.494-4.824-4.157-5.857c-1.663-1.032-4.032-1.55-7.104-1.55h-6.803
		v21.769c0,1.109-1.009,1.663-3.023,1.663h-0.604C729.276,129.388,728.269,128.834,728.269,127.725z M734.92,100.212h9.977
		c2.671,0,4.951-0.919,6.841-2.759c1.89-1.839,2.835-4.131,2.835-6.878c0-2.746-0.907-4.849-2.722-6.312
		c-1.813-1.461-4.309-2.192-7.482-2.192h-9.448V100.212z"/>
	<path fill="#FFFFFF" d="M767.95,128.103c0-0.251,0.075-0.604,0.227-1.058l17.914-49.659c0.251-0.806,1.259-1.209,3.023-1.209h2.191
		c1.764,0,2.771,0.404,3.023,1.209l17.914,49.735c0.15,0.353,0.227,0.68,0.227,0.982c0,0.857-1.084,1.285-3.25,1.285h-0.605
		c-1.764,0-2.771-0.403-3.022-1.209l-4.46-12.396H778.91l-4.309,12.396c-0.253,0.807-1.26,1.209-3.023,1.209H771.2
		C769.033,129.388,767.95,128.96,767.95,128.103z M781.026,110.038h18.064l-7.937-22.524l-0.982-4.384l-1.209,4.384L781.026,110.038
		z"/>
	<path fill="#FFFFFF" d="M849.051,127.725V82.072h-14.513c-1.009,0-1.512-0.756-1.512-2.268v-1.209c0-1.512,0.503-2.268,1.512-2.268
		h35.449c1.008,0,1.512,0.756,1.512,2.268v1.209c0,1.512-0.504,2.268-1.512,2.268h-14.285v45.653c0,1.109-1.009,1.663-3.023,1.663
		h-0.604C850.058,129.388,849.051,128.834,849.051,127.725z"/>
	<path fill="#FFFFFF" d="M883.291,122.774c-3.98-4.611-5.971-11.325-5.971-20.144c0-8.817,1.977-15.482,5.934-19.992
		c3.955-4.509,9.737-6.765,17.347-6.765c7.607,0,13.403,2.255,17.384,6.765c3.98,4.51,5.972,11.175,5.972,19.992
		c0,8.819-1.991,15.533-5.972,20.144c-3.98,4.61-9.763,6.916-17.347,6.916S887.271,127.385,883.291,122.774z M888.393,118.504
		c2.796,3.628,6.865,5.442,12.207,5.442c5.34,0,9.422-1.814,12.244-5.442c2.821-3.628,4.233-8.906,4.233-15.835
		c0-6.928-1.412-12.169-4.233-15.722c-2.822-3.552-6.904-5.329-12.244-5.329c-5.342,0-9.411,1.776-12.207,5.329
		c-2.797,3.553-4.195,8.794-4.195,15.722C884.198,109.598,885.596,114.875,888.393,118.504z"/>
	<path fill="#FFFFFF" d="M935.594,126.969V78.595c0-1.512,0.756-2.268,2.268-2.268h15.268c7.055,0,12.71,2.104,16.969,6.312
		c4.258,4.208,6.388,10.935,6.388,20.181c0,9.248-2.13,15.961-6.388,20.144c-4.259,4.183-9.914,6.273-16.969,6.273h-15.268
		C936.35,129.237,935.594,128.481,935.594,126.969z M942.246,123.492H952.6c5.09,0,9.196-1.663,12.321-4.988
		c3.123-3.326,4.686-8.553,4.686-15.684c0-7.13-1.563-12.37-4.686-15.722c-3.125-3.351-7.231-5.026-12.321-5.026h-10.354V123.492z"
		/>
	<path fill="#FFFFFF" d="M991.073,122.774c-3.98-4.611-5.971-11.325-5.971-20.144c0-8.817,1.977-15.482,5.934-19.992
		c3.955-4.509,9.737-6.765,17.347-6.765c7.607,0,13.403,2.255,17.384,6.765c3.98,4.51,5.972,11.175,5.972,19.992
		c0,8.819-1.991,15.533-5.972,20.144c-3.98,4.61-9.763,6.916-17.347,6.916S995.053,127.385,991.073,122.774z M996.175,118.504
		c2.796,3.628,6.865,5.442,12.207,5.442c5.34,0,9.422-1.814,12.244-5.442c2.821-3.628,4.233-8.906,4.233-15.835
		c0-6.928-1.412-12.169-4.233-15.722c-2.822-3.552-6.904-5.329-12.244-5.329c-5.342,0-9.411,1.776-12.207,5.329
		c-2.797,3.553-4.195,8.794-4.195,15.722C991.98,109.598,993.378,114.875,996.175,118.504z"/>
	<path fill="#FFFFFF" d="M1038.842,124.173c0-0.605,0.34-1.437,1.021-2.495c0.68-1.058,1.221-1.587,1.625-1.587
		c0.151,0,0.78,0.315,1.89,0.945c1.107,0.631,2.67,1.273,4.686,1.928c2.016,0.655,4.32,0.982,6.916,0.982
		c2.595,0,4.812-0.832,6.652-2.494c1.839-1.663,2.759-3.779,2.759-6.349s-0.845-4.611-2.532-6.123
		c-1.689-1.512-3.729-2.708-6.123-3.59c-2.394-0.881-4.799-1.826-7.218-2.834c-2.419-1.007-4.473-2.57-6.16-4.686
		c-1.689-2.117-2.532-4.812-2.532-8.088c0-4.182,1.536-7.545,4.61-10.09c3.073-2.544,7.13-3.817,12.17-3.817
		c2.468,0,5.113,0.453,7.936,1.36c2.822,0.907,4.233,1.991,4.233,3.25c0,0.555-0.315,1.361-0.945,2.419s-1.122,1.587-1.474,1.587
		c-0.202,0-0.731-0.252-1.587-0.756c-2.57-1.41-5.342-2.117-8.314-2.117c-2.974,0-5.342,0.718-7.105,2.154
		c-1.765,1.436-2.646,3.541-2.646,6.312c0,2.771,1.637,4.939,4.913,6.5c1.41,0.656,2.998,1.298,4.762,1.928
		c1.764,0.63,3.515,1.36,5.254,2.192c1.738,0.831,3.325,1.802,4.762,2.91c1.436,1.109,2.607,2.621,3.515,4.535
		c0.907,1.916,1.36,4.132,1.36,6.652c0,4.636-1.512,8.276-4.535,10.922s-6.854,3.968-11.489,3.968c-4.637,0-8.529-0.629-11.678-1.89
		C1040.417,126.542,1038.842,125.333,1038.842,124.173z"/>
</g>
<path fill="none" stroke="#FFFFFF" stroke-width="8" stroke-linecap="round" stroke-miterlimit="10" d="M27.538,83.195
	c0,0,7.161-44.434,50.546-44.434c22.918,0,42.33,13.528,44.976,42.171c3.163,34.311,15.81,101.462,88.938,101.741
	c62.216,0.244,80.356-44.972,85.012-64.404c5.081-21.189,1.244-47.278-10.724-65.9"/>
<path fill="#00CCFF" d="M285.973,30.531c-0.424,6.495-6.019,11.417-12.52,10.995c-6.492-0.416-11.413-6.015-10.993-12.511
	c0.42-6.495,6.013-11.415,12.51-11.001C281.466,18.437,286.387,24.037,285.973,30.531z"/>
<path fill="none" stroke="#FFFFFF" stroke-width="8" stroke-miterlimit="10" d="M99.229,90.88
	c-0.829,12.925-11.979,22.723-24.904,21.887c-12.926-0.829-22.728-11.979-21.887-24.904c0.83-12.926,11.974-22.718,24.898-21.885
	C90.263,66.808,100.06,77.957,99.229,90.88z"/>
<path fill="none" stroke="#FFFFFF" stroke-width="8" stroke-miterlimit="10" d="M264.407,102.771
	c-1.781,27.779-25.738,48.831-53.523,47.046c-27.779-1.792-48.837-25.739-47.046-53.524c1.792-27.784,25.749-48.836,53.528-47.042
	C245.141,51.035,266.198,74.991,264.407,102.771z"/>
<path fill="#00CCFF" d="M34.011,109.684c-0.419,6.486-6.019,11.407-12.515,10.992c-6.497-0.419-11.417-6.019-10.998-12.51
	c0.419-6.502,6.013-11.423,12.515-10.998C29.505,97.582,34.426,103.181,34.011,109.684z"/>
<g>
	<path fill="#00CCFF" d="M880.875,183.284c0.143,0.507,0.279,1.033,0.409,1.58c0.468-1.092,1.014-2.145,1.638-3.159l21.957-35.139
		c0.364-0.598,0.734-0.956,1.112-1.072c0.376-0.117,0.89-0.176,1.54-0.176h5.421l-6.864,55.887h-6.396l5.109-41.301
		c0.052-0.52,0.136-1.079,0.253-1.677c0.117-0.598,0.24-1.222,0.37-1.872l-21.723,35.022c-0.676,1.118-1.625,1.677-2.847,1.677
		h-1.015c-1.195,0-2.015-0.559-2.456-1.677l-13.455-35.1c-0.026,0.624-0.053,1.235-0.078,1.833
		c-0.026,0.599-0.065,1.157-0.117,1.677l-5.07,41.418h-6.435l6.902-55.887h5.344c0.649,0,1.163,0.059,1.54,0.176
		c0.377,0.117,0.669,0.475,0.878,1.072l13.533,35.139C880.583,182.25,880.732,182.776,880.875,183.284z"/>
	<path fill="#00CCFF" d="M931.438,201.75c-2.158,0-4.134-0.371-5.928-1.111c-1.794-0.741-3.341-1.813-4.641-3.218
		c-1.301-1.404-2.314-3.12-3.042-5.148c-0.729-2.028-1.093-4.342-1.093-6.942c0-3.328,0.521-6.46,1.561-9.399
		c1.039-2.938,2.463-5.512,4.271-7.722c1.807-2.209,3.938-3.952,6.396-5.226c2.457-1.273,5.115-1.911,7.976-1.911
		c2.158,0,4.135,0.37,5.929,1.111s3.34,1.813,4.641,3.218c1.3,1.404,2.313,3.126,3.042,5.167c0.728,2.041,1.092,4.348,1.092,6.922
		c0,3.302-0.521,6.422-1.56,9.36c-1.04,2.938-2.464,5.513-4.271,7.722c-1.808,2.21-3.946,3.958-6.416,5.246
		C936.924,201.106,934.272,201.75,931.438,201.75z M932.062,196.329c1.897,0,3.627-0.52,5.188-1.56
		c1.56-1.04,2.886-2.424,3.978-4.153c1.092-1.729,1.937-3.725,2.535-5.987c0.598-2.262,0.897-4.627,0.897-7.098
		c0-3.64-0.716-6.383-2.146-8.229c-1.43-1.846-3.497-2.769-6.201-2.769c-1.924,0-3.659,0.514-5.206,1.541
		c-1.547,1.027-2.866,2.405-3.959,4.134c-1.092,1.729-1.937,3.725-2.534,5.987c-0.599,2.262-0.897,4.628-0.897,7.098
		c0,3.641,0.708,6.39,2.126,8.249C927.258,195.4,929.333,196.329,932.062,196.329z"/>
	<path fill="#00CCFF" d="M983.269,201.204c-0.911,0-1.528-0.234-1.853-0.702c-0.326-0.468-0.488-1.04-0.488-1.716l0.741-8.229
		c-0.988,1.69-2.066,3.224-3.236,4.602c-1.171,1.378-2.399,2.554-3.686,3.529c-1.287,0.975-2.627,1.729-4.018,2.262
		s-2.802,0.799-4.231,0.799c-3.38,0-6-1.229-7.858-3.686c-1.859-2.457-2.788-6.025-2.788-10.706c0-2.131,0.22-4.264,0.663-6.396
		c0.441-2.131,1.072-4.173,1.891-6.123c0.819-1.95,1.808-3.764,2.965-5.441c1.156-1.677,2.443-3.126,3.86-4.348
		s2.957-2.184,4.622-2.886c1.663-0.702,3.405-1.053,5.226-1.053c1.924,0,3.686,0.377,5.284,1.131c1.6,0.754,2.958,1.833,4.076,3.237
		l2.69-21.723h6.825l-7.098,57.447H983.269z M969.112,196.173c1.248,0,2.502-0.383,3.764-1.151c1.261-0.767,2.482-1.833,3.666-3.198
		c1.183-1.365,2.287-2.99,3.314-4.875c1.027-1.885,1.917-3.945,2.672-6.182l1.287-10.452c-0.988-1.377-2.172-2.353-3.549-2.925
		c-1.379-0.572-2.77-0.858-4.174-0.858c-2.054,0-3.906,0.611-5.557,1.833c-1.652,1.222-3.056,2.802-4.213,4.738
		c-1.157,1.938-2.047,4.102-2.671,6.494c-0.624,2.393-0.937,4.745-0.937,7.059c0,3.094,0.56,5.454,1.678,7.079
		C965.51,195.361,967.083,196.173,969.112,196.173z"/>
	<path fill="#00CCFF" d="M1008.618,161.697l-2.964,25.116c-0.052,0.521-0.098,1.014-0.137,1.482
		c-0.039,0.468-0.058,0.923-0.058,1.365c0,2.132,0.396,3.718,1.189,4.758c0.792,1.041,2.047,1.56,3.763,1.56
		c1.196,0,2.425-0.325,3.686-0.975c1.261-0.649,2.483-1.573,3.666-2.769c1.184-1.195,2.282-2.638,3.296-4.329
		c1.014-1.69,1.897-3.575,2.652-5.655l2.457-20.553h6.902l-4.758,39.507h-3.432c-0.807,0-1.431-0.182-1.872-0.546
		c-0.442-0.364-0.663-0.923-0.663-1.677c0-0.025,0.013-0.259,0.039-0.702c0.025-0.442,0.059-0.923,0.098-1.443
		c0.039-0.52,0.077-1,0.116-1.443c0.039-0.442,0.059-0.676,0.059-0.702l0.273-3.159c-2.106,3.354-4.46,5.896-7.06,7.625
		c-2.6,1.729-5.278,2.593-8.033,2.593c-2.938,0-5.221-1-6.845-3.003c-1.625-2.002-2.438-4.875-2.438-8.619
		c0-0.52,0.013-1.053,0.039-1.599c0.025-0.546,0.078-1.118,0.156-1.716l2.964-25.116H1008.618z"/>
	<path fill="#00CCFF" d="M1039.193,201.204l6.981-57.447H1053l-6.981,57.447H1039.193z"/>
	<path fill="#00CCFF" d="M1069.574,161.697l-4.758,39.507h-6.825l4.758-39.507H1069.574z M1072.187,149.295
		c0,0.677-0.137,1.307-0.41,1.892c-0.272,0.585-0.637,1.105-1.092,1.56c-0.455,0.455-0.969,0.813-1.54,1.073
		c-0.572,0.26-1.17,0.39-1.794,0.39c-0.599,0-1.184-0.13-1.756-0.39c-0.571-0.26-1.072-0.618-1.501-1.073
		c-0.429-0.455-0.774-0.975-1.033-1.56c-0.261-0.585-0.391-1.215-0.391-1.892c0-0.676,0.13-1.313,0.391-1.911
		c0.259-0.598,0.61-1.125,1.053-1.58c0.441-0.455,0.948-0.819,1.521-1.092c0.572-0.273,1.157-0.409,1.755-0.409
		c0.624,0,1.223,0.13,1.795,0.39c0.571,0.26,1.085,0.618,1.54,1.073c0.455,0.455,0.813,0.988,1.072,1.599
		S1072.187,148.619,1072.187,149.295z"/>
</g>
</svg>
